<?xml version="1.0" encoding="utf-8"?>
<!-- Generator: Adobe Illustrator 17.1.0, SVG Export Plug-In . SVG Version: 6.00 Build 0)  -->
<!DOCTYPE svg PUBLIC "-//W3C//DTD SVG 1.1//EN" "http://www.w3.org/Graphics/SVG/1.1/DTD/svg11.dtd">
<svg version="1.1" id="Layer_1" xmlns="http://www.w3.org/2000/svg" xmlns:xlink="http://www.w3.org/1999/xlink" x="0px" y="0px"
	 viewBox="0 0 50 50" enable-background="new 0 0 50 50" xml:space="preserve">
<g>
	<g>
		<path fill="#FFFFFF" d="M42.38,23.158c0.29,0.235,0.58,0.469,0.871,0.704l1.083-0.112c0.186-0.019,0.303,0.003,0.363,0.087
			c0.058,0.082,0.046,0.204-0.026,0.386c-0.131,0.33-0.254,0.663-0.381,0.994c0.142,0.321,0.284,0.642,0.427,0.962
			c0.147,0.331,0.105,0.521-0.291,0.502c-0.368-0.017-0.736-0.038-1.104-0.057c-0.274,0.245-0.549,0.489-0.821,0.736
			c-0.218,0.199-0.414,0.267-0.511-0.084c-0.104-0.379-0.204-0.759-0.306-1.138c-0.291-0.169-0.58-0.341-0.873-0.506
			c-0.203-0.115-0.31-0.196-0.331-0.289c-0.025-0.11,0.054-0.193,0.222-0.303c0.312-0.205,0.625-0.406,0.938-0.61
			c0.077-0.359,0.157-0.718,0.231-1.078C41.935,23.045,42.127,22.953,42.38,23.158L42.38,23.158z M42.274,23.288
			c-0.151-0.122-0.201-0.087-0.24,0.099c-0.079,0.383-0.164,0.765-0.246,1.147c-0.332,0.216-0.664,0.43-0.995,0.647
			c-0.103,0.068-0.155,0.107-0.15,0.126c0.008,0.036,0.089,0.09,0.249,0.18c0.314,0.177,0.623,0.361,0.935,0.542
			c0.108,0.401,0.213,0.803,0.323,1.204c0.054,0.195,0.097,0.134,0.238,0.005c0.289-0.264,0.582-0.522,0.873-0.783
			c0.39,0.02,0.781,0.042,1.171,0.061c0.252,0.012,0.231-0.042,0.131-0.267c-0.152-0.342-0.303-0.684-0.454-1.025
			c0.136-0.354,0.267-0.709,0.407-1.061c0.05-0.125,0.066-0.198,0.045-0.227c-0.019-0.027-0.088-0.031-0.209-0.018
			c-0.384,0.04-0.769,0.08-1.153,0.119C42.89,23.786,42.582,23.537,42.274,23.288z"/>
		<path fill-rule="evenodd" clip-rule="evenodd" fill="#FFFFFF" d="M42.327,23.223c0.299,0.242,0.598,0.484,0.897,0.726
			c0.373-0.039,0.746-0.077,1.118-0.116c0.306-0.032,0.372,0.053,0.25,0.36c-0.135,0.341-0.263,0.685-0.394,1.027
			c0.147,0.331,0.293,0.663,0.44,0.994c0.148,0.333,0.062,0.397-0.211,0.385c-0.379-0.018-0.758-0.039-1.137-0.059
			c-0.282,0.253-0.567,0.504-0.847,0.76c-0.197,0.179-0.303,0.214-0.374-0.045c-0.107-0.39-0.21-0.781-0.314-1.171
			c-0.301-0.175-0.6-0.353-0.904-0.524c-0.363-0.205-0.375-0.271-0.104-0.449c0.321-0.211,0.644-0.419,0.966-0.628
			c0.08-0.371,0.162-0.741,0.238-1.113C42.007,23.107,42.137,23.069,42.327,23.223z"/>
		<path fill-rule="evenodd" clip-rule="evenodd" fill="#FFFFFF" d="M43.822,24.159c-0.008-0.151,0.102-0.282,0.252-0.297
			l0.269-0.028c0.306-0.032,0.372,0.053,0.25,0.36c-0.121,0.305-0.236,0.612-0.352,0.919c-0.027,0.07-0.025,0.147,0.006,0.215
			c0.131,0.296,0.262,0.592,0.393,0.887c0.148,0.333,0.062,0.397-0.211,0.385c-0.34-0.016-0.68-0.035-1.021-0.053
			c-0.075-0.004-0.148,0.022-0.204,0.072c-0.14,0.125-0.278,0.252-0.42,0.375c-0.519,0.449-0.62,0.726-0.854-0.253
			c-0.001-0.004-0.002-0.008-0.003-0.012c-0.044-0.165,0.066-0.332,0.235-0.353c0.126-0.016,0.252-0.045,0.376-0.089
			C43.378,25.99,43.871,25.115,43.822,24.159z"/>
	</g>
</g>
<text transform="matrix(1 0 0 1 6.2496 27.5661)"><tspan x="0" y="0" fill="#FFFFFF" font-family="'Pacifico'" font-size="11.6206">eR</tspan><tspan x="14.525" y="0" fill="#FFFFFF" font-family="'Pacifico'" font-size="11.6206">a</tspan><tspan x="19.797" y="0" fill="#FFFFFF" font-family="'Pacifico'" font-size="11.6206">t</tspan><tspan x="24.075" y="0" fill="#FFFFFF" font-family="'Pacifico'" font-size="11.6206">e</tspan><tspan x="28.585" y="0" fill="#FFFFFF" font-family="'Pacifico'" font-size="11.6206">d</tspan></text>
</svg>
